<svg xmlns="http://www.w3.org/2000/svg" version="1.1" xmlns:xlink="http://www.w3.org/1999/xlink" xmlns:svgjs="http://svgjs.dev/svgjs" width="1500" height="1500" viewBox="0 0 1500 1500"><rect width="1500" height="1500" fill="#ffffff"></rect><g transform="matrix(0.6666666666666666,0,0,0.6666666666666666,249.39393939393943,617.3510407015792)"><svg viewBox="0 0 396 105" data-background-color="#ffffff" preserveAspectRatio="xMidYMid meet" height="397" width="1500" xmlns="http://www.w3.org/2000/svg" xmlns:xlink="http://www.w3.org/1999/xlink"><g id="tight-bounds" transform="matrix(1,0,0,1,0.2400000000000091,0.12521685012922035)"><svg viewBox="0 0 395.52 104.74956629974157" height="104.74956629974157" width="395.52"><g><svg viewBox="0 0 559.1758821087058 148.092210599116" height="104.74956629974157" width="395.52"><g transform="matrix(1,0,0,1,163.65588210870584,20.467157904798235)"><svg viewBox="0 0 395.52 107.15789478951952" height="107.15789478951952" width="395.52"><g id="textblocktransform"><svg viewBox="0 0 395.52 107.15789478951952" height="107.15789478951952" width="395.52" id="textblock"><g><svg viewBox="0 0 395.52 65.93387497368975" height="65.93387497368975" width="395.52"><g transform="matrix(1,0,0,1,0,0)"><svg width="395.52" viewBox="1 -38.9 237.54 39.6" height="65.93387497368975" data-palette-color="#ffc576"><g class="wordmark-text-0" data-fill-palette-color="primary" id="text-0"><path d="M1 0L1-8.2 3.5-8.2 3.5-30.7 1-30.7 1-38.9 23.95-38.9Q30.2-38.9 33.7-36.35 37.2-33.8 37.2-29.05L37.2-29.05Q37.2-26.1 35.8-24.08 34.4-22.05 32.52-21.03 30.65-20 28.9-19.65L28.9-19.65 28.9-19.15Q32.45-18.8 35.3-16.9 38.15-15 38.15-10.1L38.15-10.1Q38.15-4.85 34.2-2.43 30.25 0 23.95 0L23.95 0 1 0ZM17.5-22.5L20.2-22.5Q21.65-22.5 22.38-23.28 23.1-24.05 23.1-25.7L23.1-25.7 23.1-27.5Q23.1-29.15 22.38-29.93 21.65-30.7 20.2-30.7L20.2-30.7 17.5-30.7 17.5-22.5ZM17.5-8.2L20.55-8.2Q22-8.2 22.73-8.97 23.45-9.75 23.45-11.4L23.45-11.4 23.45-13.6Q23.45-15.25 22.73-16.03 22-16.8 20.55-16.8L20.55-16.8 17.5-16.8 17.5-8.2ZM66.6-8.2L68.8-8.2 68.8 0 55.6 0 55.6-3.4Q54.5-1.8 52.52-0.55 50.55 0.7 47.7 0.7L47.7 0.7Q43.95 0.7 41.8-1.3 39.65-3.3 39.65-6.95L39.65-6.95Q39.65-16.4 55.7-16.65L55.7-16.65Q55.55-18.35 54.4-18.98 53.25-19.6 50.5-19.6L50.5-19.6Q48.25-19.6 45.67-19.13 43.1-18.65 40.95-17.85L40.95-17.85 40.95-27.05Q43.6-27.7 46.7-28.1 49.8-28.5 52.75-28.5L52.75-28.5Q60.2-28.5 63.4-25.8 66.6-23.1 66.6-17.45L66.6-17.45 66.6-8.2ZM55.6-11.4L55.6-11.7Q53.35-11.7 52.12-11.1 50.9-10.5 50.9-9.1L50.9-9.1Q50.9-8.25 51.42-7.73 51.95-7.2 52.9-7.2L52.9-7.2Q54.2-7.2 54.9-8.3 55.6-9.4 55.6-11.4L55.6-11.4ZM101.4-8.2L103.59-8.2 103.59 0 87.8 0 87.8-8.2 89.9-8.2 89.9-16.4Q89.9-18.05 89.2-18.82 88.5-19.6 87.09-19.6L87.09-19.6Q84.09-19.6 84.09-16.4L84.09-16.4 84.09-8.2 86.2-8.2 86.2 0 70.4 0 70.4-8.2 72.59-8.2 72.59-30.7 70.4-30.7 70.4-38.9 84.09-38.9 84.09-23.9Q85.95-26.2 88.09-27.35 90.25-28.5 93.09-28.5L93.09-28.5Q97.25-28.5 99.32-25.9 101.4-23.3 101.4-18.75L101.4-18.75 101.4-8.2ZM132.14-8.2L134.34-8.2 134.34 0 121.14 0 121.14-3.4Q120.04-1.8 118.07-0.55 116.09 0.7 113.24 0.7L113.24 0.7Q109.49 0.7 107.34-1.3 105.19-3.3 105.19-6.95L105.19-6.95Q105.19-16.4 121.24-16.65L121.24-16.65Q121.09-18.35 119.94-18.98 118.79-19.6 116.04-19.6L116.04-19.6Q113.79-19.6 111.22-19.13 108.64-18.65 106.49-17.85L106.49-17.85 106.49-27.05Q109.14-27.7 112.24-28.1 115.34-28.5 118.29-28.5L118.29-28.5Q125.74-28.5 128.94-25.8 132.14-23.1 132.14-17.45L132.14-17.45 132.14-8.2ZM121.14-11.4L121.14-11.7Q118.89-11.7 117.67-11.1 116.44-10.5 116.44-9.1L116.44-9.1Q116.44-8.25 116.97-7.73 117.49-7.2 118.44-7.2L118.44-7.2Q119.74-7.2 120.44-8.3 121.14-9.4 121.14-11.4L121.14-11.4ZM184.24-8.2L186.44-8.2 186.44 0 170.64 0 170.64-8.2 172.74-8.2 172.74-16.4Q172.74-18.05 172.04-18.82 171.34-19.6 169.94-19.6L169.94-19.6Q166.94-19.6 166.94-16.4L166.94-16.4 166.94-8.2 169.04-8.2 169.04 0 153.34 0 153.34-8.2 155.44-8.2 155.44-16.4Q155.44-18.05 154.74-18.82 154.04-19.6 152.64-19.6L152.64-19.6Q149.64-19.6 149.64-16.4L149.64-16.4 149.64-8.2 151.74-8.2 151.74 0 135.94 0 135.94-8.2 138.14-8.2 138.14-19.6 135.94-19.6 135.94-27.8 149.64-27.8 149.64-23.9Q153.24-28.5 158.64-28.5L158.64-28.5Q161.69-28.5 163.62-27.08 165.54-25.65 166.34-23.05L166.34-23.05Q168.14-25.65 170.47-27.05 172.79-28.45 175.94-28.45L175.94-28.45Q180.09-28.45 182.17-25.85 184.24-23.25 184.24-18.7L184.24-18.7 184.24-8.2ZM200.64-30.55L190.44-30.55 190.44-38.9 200.64-38.9 200.64-30.55ZM203.94 0L188.04 0 188.04-8.2 190.24-8.2 190.24-19.6 188.04-19.6 188.04-27.8 201.74-27.8 201.74-8.2 203.94-8.2 203.94 0ZM236.34-8.2L238.54-8.2 238.54 0 222.74 0 222.74-8.2 224.84-8.2 224.84-16.4Q224.84-18.05 224.14-18.82 223.44-19.6 222.04-19.6L222.04-19.6Q219.04-19.6 219.04-16.4L219.04-16.4 219.04-8.2 221.14-8.2 221.14 0 205.34 0 205.34-8.2 207.54-8.2 207.54-19.6 205.34-19.6 205.34-27.8 219.04-27.8 219.04-23.9Q222.64-28.5 228.04-28.5L228.04-28.5Q232.19-28.5 234.26-25.9 236.34-23.3 236.34-18.75L236.34-18.75 236.34-8.2Z" fill="#000000" data-fill-palette-color="primary"></path></g></svg></g></svg></g><g transform="matrix(1,0,0,1,0,81.49928044197854)"><svg viewBox="0 0 232.20979199999996 25.658614347540983" height="25.658614347540983" width="232.20979199999996"><g transform="matrix(1,0,0,1,0,0)"><svg width="232.20979199999996" viewBox="-0.22 -38.23 424.41 46.9" height="25.658614347540983" data-palette-color="#ffc576"><path d="M47.14-33.74L47.14-33.74Q47.14-33.37 46.97-32.84L46.97-32.84Q46.39-31.25 45.92-30.08L45.92-30.08 32.98 1.34 23.78-19.21 14.23 1.34-0.22-34.55 13.16-34.55 20.02-16.26 29.32-36.11 37.99-16.31 44.09-30.64Q44.41-31.45 44.63-32.23L44.63-32.23 45.04-33.72Q45.31-34.81 46.23-34.81 47.14-34.81 47.14-33.74ZM74.8-5.93L74.8-5.93Q75.75-5.93 75.75-5.05L75.75-5.05Q75.75-4.39 74.9-3.49L74.9-3.49Q71.04 0.46 64.33 0.46L64.33 0.46Q58.3 0.46 54.17-3.17L54.17-3.17Q49.9-6.96 49.9-12.74L49.9-12.74Q49.9-18.65 53.76-22.46L53.76-22.46Q57.83-26.51 64.6-26.51L64.6-26.51Q70.02-26.51 73.7-23.22L73.7-23.22Q77.68-19.68 77.68-13.92L77.68-13.92Q77.68-13.09 77.63-12.16L77.63-12.16 61.52-12.16 61.52-1.68Q63.18-1.34 65.26-1.34L65.26-1.34Q69.65-1.34 72.75-4.25L72.75-4.25Q73.39-4.88 73.65-5.25L73.65-5.25Q74.22-5.93 74.8-5.93ZM68.28-13.94L68.28-24.27Q66.7-24.73 64.69-24.73 62.69-24.73 61.52-24.46L61.52-24.46 61.52-13.94 68.28-13.94ZM100.48 0.46L100.48 0.46Q97.09 0.46 93.92-1.07L93.92-1.07 93.92 0 83.88 0 83.88-34.55 93.92-34.55 93.92-24.83Q97.02-26.51 100.41-26.51 103.8-26.51 106.37-25.51 108.93-24.51 110.76-22.75L110.76-22.75Q114.55-19.04 114.55-13.26L114.55-13.26Q114.55-7.42 110.81-3.56L110.81-3.56Q106.95 0.46 100.48 0.46ZM100.41-24.73L100.41-24.73Q96.8-24.73 93.92-22.73L93.92-22.73 93.92-3.15Q97.11-1.34 101.09-1.34L101.09-1.34 101.73-1.34Q102.02-1.34 102.29-1.39L102.29-1.39 102.29-24.58Q101.36-24.73 100.41-24.73ZM150.43 0L150.43-1.34Q147.38 0.46 143.97 0.46 140.57 0.46 137.99-0.55 135.41-1.56 133.58-3.37L133.58-3.37Q129.78-7.15 129.78-13.21L129.78-13.21Q129.78-18.82 133.53-22.56L133.53-22.56Q137.54-26.51 143.98-26.51L143.98-26.51Q147.4-26.51 150.43-25.02L150.43-25.02 150.43-34.55 160.49-34.55 160.49 0 150.43 0ZM143.5-24.73L143.5-24.73Q142.74-24.73 142.06-24.63L142.06-24.63 142.06-1.49Q142.93-1.34 143.96-1.34L143.96-1.34Q147.35-1.34 150.43-3.49L150.43-3.49 150.43-22.85Q147.13-24.73 143.5-24.73ZM191.13-5.93L191.13-5.93Q192.08-5.93 192.08-5.05L192.08-5.05Q192.08-4.39 191.22-3.49L191.22-3.49Q187.37 0.46 180.65 0.46L180.65 0.46Q174.62 0.46 170.5-3.17L170.5-3.17Q166.22-6.96 166.22-12.74L166.22-12.74Q166.22-18.65 170.08-22.46L170.08-22.46Q174.16-26.51 180.92-26.51L180.92-26.51Q186.34-26.51 190.03-23.22L190.03-23.22Q194.01-19.68 194.01-13.92L194.01-13.92Q194.01-13.09 193.96-12.16L193.96-12.16 177.84-12.16 177.84-1.68Q179.5-1.34 181.58-1.34L181.58-1.34Q185.97-1.34 189.07-4.25L189.07-4.25Q189.71-4.88 189.98-5.25L189.98-5.25Q190.54-5.93 191.13-5.93ZM184.61-13.94L184.61-24.27Q183.02-24.73 181.02-24.73 179.02-24.73 177.84-24.46L177.84-24.46 177.84-13.94 184.61-13.94ZM209.48 1.1L196.08-26.07 207.14-26.07 213.78-12.38 217.95-20.68Q219.25-23.34 219.58-24.63 219.91-25.93 220.24-26.22 220.57-26.51 221.04-26.51 221.52-26.51 221.79-26.2 222.06-25.88 222.06-25.56 222.06-25.24 221.99-24.93 221.93-24.61 221.76-24.07L221.76-24.07Q221.4-23.07 220.22-20.61L220.22-20.61 209.48 1.1ZM248.96-5.93L248.96-5.93Q249.91-5.93 249.91-5.05L249.91-5.05Q249.91-4.39 249.05-3.49L249.05-3.49Q245.2 0.46 238.48 0.46L238.48 0.46Q232.45 0.46 228.33-3.17L228.33-3.17Q224.05-6.96 224.05-12.74L224.05-12.74Q224.05-18.65 227.91-22.46L227.91-22.46Q231.99-26.51 238.75-26.51L238.75-26.51Q244.17-26.51 247.86-23.22L247.86-23.22Q251.84-19.68 251.84-13.92L251.84-13.92Q251.84-13.09 251.79-12.16L251.79-12.16 235.68-12.16 235.68-1.68Q237.34-1.34 239.41-1.34L239.41-1.34Q243.81-1.34 246.91-4.25L246.91-4.25Q247.54-4.88 247.81-5.25L247.81-5.25Q248.37-5.93 248.96-5.93ZM242.44-13.94L242.44-24.27Q240.85-24.73 238.85-24.73 236.85-24.73 235.68-24.46L235.68-24.46 235.68-13.94 242.44-13.94ZM258.04 0L258.04-34.55 268.53-34.55 268.53 0 258.04 0ZM274.27-13.18L274.27-13.18Q274.27-16.11 275.33-18.52 276.39-20.92 278.25-22.71L278.25-22.71Q282.25-26.51 288.31-26.51L288.31-26.51Q294.48-26.51 298.37-22.56L298.37-22.56Q302.08-18.82 302.08-13.11L302.08-13.11Q302.08-7.37 298.27-3.52L298.27-3.52Q294.34 0.46 288.21 0.46L288.21 0.46Q282.23 0.46 278.3-3.32L278.3-3.32Q274.27-7.23 274.27-13.18ZM287.53-24.71L287.53-1.37Q287.72-1.34 287.92-1.34L287.92-1.34 288.26-1.34Q293.19-1.34 296.54-4.39L296.54-4.39Q300.1-7.69 300.1-13.04L300.1-13.04Q300.1-18.26 296.75-21.51L296.75-21.51Q293.46-24.73 288.23-24.73L288.23-24.73 287.87-24.73Q287.7-24.73 287.53-24.71L287.53-24.71ZM324.93 0.46L324.93 0.46Q321.53 0.46 318.36-1.07L318.36-1.07 318.36 7.81 308.32 7.81 308.32-26.07 318.36-26.07 318.36-24.73Q321.56-26.51 324.9-26.51 328.25-26.51 330.81-25.51 333.37-24.51 335.2-22.75L335.2-22.75Q338.99-19.04 338.99-13.26L338.99-13.26Q338.99-7.42 335.25-3.56L335.25-3.56Q331.4 0.46 324.93 0.46ZM324.85-24.73L324.85-24.73Q321.24-24.73 318.36-22.73L318.36-22.73 318.36-3.25Q321.65-1.34 325.54-1.34L325.54-1.34 326.17-1.34Q326.46-1.34 326.73-1.39L326.73-1.39 326.73-24.58Q325.81-24.73 324.85-24.73ZM350.36-30.35Q347.85-30.35 346.43-31.47 345.02-32.59 345.02-34.42L345.02-34.42Q345.02-35.96 346.58-37.06L346.58-37.06Q348.24-38.23 350.09-38.23 351.95-38.23 352.96-37.87 353.98-37.5 354.68-36.91L354.68-36.91Q356.1-35.72 356.1-34.13L356.1-34.13Q356.1-32.54 354.49-31.45L354.49-31.45Q352.88-30.35 350.36-30.35ZM345.24 0L345.24-26.07 355.73-26.07 355.73 0 345.24 0ZM381.78 0L381.78-23.41Q381.17-23.8 380.46-23.8 379.76-23.8 379-23.47 378.24-23.14 377.41-22.56L377.41-22.56Q375.68-21.31 374.21-19.24L374.21-19.24 374.21 0 363.72 0 363.72-26.07 374.21-26.07 374.21-21.9Q378.39-26.51 383.66-26.51L383.66-26.51Q392.28-26.51 392.28-18.16L392.28-18.16 392.28 0 381.78 0ZM405.58-7.96L405.58-7.96Q403.41-7.3 403.41-6.52L403.41-6.52Q403.41-5.76 404.68-5.47L404.68-5.47Q407.15-4.88 411.47-4.77 415.79-4.66 417.97-4.11 420.16-3.56 421.45-2.73L421.45-2.73Q423.8-1.2 423.8 1.34L423.8 1.34Q423.8 4.52 420.65 6.49L420.65 6.49Q417.16 8.67 410.81 8.67L410.81 8.67Q404.24 8.67 399.97 6.71L399.97 6.71Q398.43 5.96 398.43 5L398.43 5Q398.43 4.59 398.73 4.35 399.04 4.1 399.38 4.1L399.38 4.1Q399.8 4.1 400.33 4.42L400.33 4.42Q401.58 5.13 402.64 5.6 403.7 6.08 405.97 6.52 408.24 6.96 410.36 6.96 412.47 6.96 413.8 6.77 415.13 6.59 416.01 6.35L416.01 6.35Q417.74 5.83 417.74 5.2L417.74 5.2Q417.74 4.61 417.4 4.35 417.06 4.08 416.51 3.87 415.96 3.66 414.98 3.49L414.98 3.49Q412.98 3.15 409.54 2.98 406.1 2.81 404.09 2.31 402.09 1.81 400.82 1.03L400.82 1.03Q398.36-0.46 398.36-3L398.36-3Q398.36-6.67 403.31-8.94L403.31-8.94Q401.04-10.18 399.7-12.22 398.36-14.26 398.36-16.64 398.36-19.02 399.25-20.76 400.14-22.51 401.75-23.78L401.75-23.78Q405.14-26.51 410.51-26.51L410.51-26.51Q412.91-26.51 415.32-25.78L415.32-25.78Q418.79-29.13 421.74-29.13L421.74-29.13Q422.99-29.13 423.59-28.71 424.19-28.3 424.19-27.66L424.19-27.66Q424.19-27.03 423.77-26.75 423.36-26.46 422.99-26.46L422.99-26.46Q422.33-26.46 421.87-26.61L421.87-26.61Q421.18-26.86 420.48-26.86L420.48-26.86Q419.16-26.86 417.16-25.02L417.16-25.02Q421.13-23.07 422.36-19.41L422.36-19.41Q422.75-18.19 422.75-16.42 422.75-14.65 421.72-12.89 420.7-11.13 418.99-9.86L418.99-9.86Q415.42-7.23 410.61-7.23L410.61-7.23Q408.07-7.18 405.58-7.96ZM410.71-24.78L410.71-9.01Q414.66-9.06 417.52-10.94L417.52-10.94Q420.82-13.09 420.82-16.75 420.82-20.41 417.57-22.66L417.57-22.66Q414.59-24.71 410.71-24.78L410.71-24.78Z" opacity="1" transform="matrix(1,0,0,1,0,0)" fill="#000000" class="slogan-text-1" data-fill-palette-color="secondary" id="text-1"></path></svg></g></svg></g></svg></g></svg></g><g><svg viewBox="0 0 148.09047664041705 148.092210599116" height="148.092210599116" width="148.09047664041705"><g><svg xmlns="http://www.w3.org/2000/svg" xmlns:xlink="http://www.w3.org/1999/xlink" version="1.1" x="0" y="0" viewBox="2.297 2.297 85.406 85.40700000000001" enable-background="new 0 0 90 90" xml:space="preserve" height="148.092210599116" width="148.09047664041705" class="icon-icon-0" data-fill-palette-color="accent" id="icon-0"><g fill="#ffc576" data-fill-palette-color="accent"><path fill="none" d="M78.471 42.277L56.02 32.591c-0.117-0.05-0.197-0.061-0.244-0.061-0.04 0-0.146 0-0.146 0.317v3.642c0 0.607 0.517 1.363 1.083 1.582l14.661 5.672c1.082 0.419 1.246 1.096 1.246 1.463 0.001 0.366-0.158 1.045-1.239 1.469l-14.667 5.759c-0.567 0.223-1.084 0.981-1.084 1.591v3.692c0 0.209 0.047 0.313 0.14 0.313 0.066 0 0.153-0.021 0.244-0.061l22.457-9.778c0.569-0.248 1.089-1.04 1.089-1.663v-2.594C79.56 43.313 79.041 42.522 78.471 42.277z"></path><path fill="none" d="M34.227 32.43c-0.066 0-0.153 0.021-0.244 0.061L11.53 42.222c-0.571 0.248-1.091 1.039-1.091 1.661v2.646c0 0.621 0.52 1.413 1.091 1.66l22.454 9.732c0.091 0.039 0.178 0.061 0.243 0.061 0.04 0 0.144 0 0.144-0.315v-3.692c0-0.61-0.518-1.37-1.085-1.594l-14.616-5.755c-1.08-0.426-1.239-1.104-1.238-1.471 0.002-0.366 0.166-1.044 1.249-1.461l14.607-5.625c0.567-0.218 1.083-0.971 1.083-1.579v-3.745C34.37 32.43 34.266 32.43 34.227 32.43z"></path><path fill="none" d="M50.409 26.905c-0.281-0.254-0.739-0.384-1.36-0.384-0.647 0-1.062 0.146-1.23 0.433-0.202 0.344-0.536 1.14-0.975 2.976l-7.126 29.447c-0.44 2.024-0.487 2.59-0.487 2.739 0 1.259 0.85 1.364 1.72 1.364 0.329 0 0.772-0.045 1.021-0.259 0.237-0.205 0.422-0.512 0.55-0.914 0.174-0.545 0.379-1.3 0.61-2.241l7.152-29.452c0.423-1.652 0.512-2.367 0.512-2.677C50.797 27.326 50.575 27.056 50.409 26.905z"></path><path fill="none" d="M73.944 16.055c-7.731-7.731-18.011-11.99-28.945-11.99-10.934 0-21.213 4.258-28.945 11.99S4.065 34.066 4.065 45.001c0 10.934 4.257 21.213 11.989 28.944 7.732 7.731 18.011 11.99 28.945 11.99 10.935 0 21.214-4.259 28.945-11.99 7.732-7.731 11.99-18.011 11.99-28.944C85.935 34.066 81.677 23.788 73.944 16.055zM36.139 36.489c0 1.332-0.974 2.75-2.217 3.229l-14.139 5.445 14.149 5.571c1.237 0.486 2.206 1.91 2.206 3.239v3.692c0 1.207-0.804 2.083-1.912 2.083-0.311 0-0.63-0.069-0.946-0.206l-22.454-9.731c-1.208-0.524-2.155-1.967-2.155-3.283v-2.646c0-1.317 0.946-2.759 2.155-3.283l22.454-9.731c0.316-0.138 0.635-0.208 0.946-0.208 1.108 0 1.912 0.875 1.912 2.083V36.489zM52 31.042l-7.15 29.443c-0.24 0.982-0.456 1.775-0.642 2.359-0.229 0.719-0.594 1.296-1.083 1.718-0.531 0.455-1.262 0.687-2.174 0.687-2.218 0-3.489-1.142-3.489-3.133 0-0.295 0.055-0.94 0.532-3.125l0.004-0.02 7.128-29.456c0.397-1.666 0.78-2.797 1.169-3.458 0.351-0.596 1.112-1.305 2.755-1.305 1.073 0 1.931 0.282 2.548 0.841 0.643 0.582 0.968 1.37 0.968 2.342C52.564 28.553 52.386 29.54 52 31.042zM79.176 49.813L56.72 59.591c-0.317 0.138-0.638 0.208-0.95 0.208-1.105 0-1.908-0.875-1.908-2.082v-3.692c0-1.329 0.97-2.751 2.207-3.236l14.201-5.576L56.076 39.72c-1.242-0.48-2.215-1.899-2.215-3.231v-3.642c0-1.208 0.805-2.085 1.914-2.085 0.31 0 0.628 0.068 0.944 0.205l22.451 9.686c1.21 0.522 2.157 1.963 2.157 3.281v2.594C81.328 47.845 80.383 49.287 79.176 49.813z"></path><path d="M75.196 14.805C67.13 6.74 56.406 2.298 44.999 2.297 33.594 2.298 22.869 6.74 14.804 14.805 6.739 22.87 2.297 33.595 2.297 45.001s4.442 22.13 12.507 30.196c8.066 8.064 18.79 12.507 30.195 12.507 11.407 0 22.131-4.442 30.197-12.507 8.064-8.066 12.507-18.79 12.507-30.196S83.261 22.871 75.196 14.805zM73.944 73.945c-7.731 7.731-18.011 11.99-28.945 11.99-10.934 0-21.212-4.259-28.945-11.99C8.323 66.214 4.065 55.935 4.065 45.001c0-10.935 4.257-21.214 11.989-28.946s18.011-11.99 28.945-11.99c10.935 0 21.214 4.258 28.945 11.99 7.732 7.732 11.99 18.011 11.99 28.946C85.935 55.935 81.677 66.214 73.944 73.945z" fill="#000000" data-fill-palette-color="accent"></path><path d="M34.227 30.662c-0.311 0-0.63 0.069-0.946 0.208L10.826 40.6c-1.208 0.524-2.155 1.965-2.155 3.283v2.646c0 1.316 0.946 2.759 2.155 3.283l22.454 9.731c0.316 0.137 0.635 0.206 0.946 0.206 1.108 0 1.912-0.876 1.912-2.083v-3.692c0-1.329-0.969-2.753-2.206-3.239l-14.149-5.571 14.139-5.445c1.243-0.479 2.217-1.897 2.217-3.229v-3.745C36.139 31.537 35.334 30.662 34.227 30.662zM34.37 36.489c0 0.607-0.517 1.36-1.083 1.579l-14.607 5.625c-1.083 0.417-1.247 1.095-1.249 1.461-0.001 0.367 0.159 1.045 1.238 1.471l14.616 5.755c0.568 0.224 1.085 0.983 1.085 1.594v3.692c0 0.315-0.104 0.315-0.144 0.315-0.065 0-0.152-0.021-0.243-0.061L11.53 48.188c-0.571-0.247-1.091-1.039-1.091-1.66v-2.646c0-0.622 0.52-1.413 1.091-1.661l22.453-9.731c0.091-0.04 0.178-0.061 0.244-0.061 0.04 0 0.144 0 0.144 0.314V36.489z" fill="#000000" data-fill-palette-color="accent"></path><path d="M49.049 24.753c-1.643 0-2.404 0.709-2.755 1.305-0.389 0.661-0.771 1.792-1.169 3.458l-7.128 29.456-0.004 0.02c-0.477 2.185-0.532 2.83-0.532 3.125 0 1.991 1.271 3.133 3.489 3.133 0.912 0 1.643-0.231 2.174-0.687 0.489-0.422 0.854-0.999 1.083-1.718 0.186-0.584 0.401-1.377 0.642-2.359L52 31.042c0.386-1.502 0.564-2.489 0.564-3.105 0-0.972-0.325-1.76-0.968-2.342C50.979 25.036 50.122 24.753 49.049 24.753zM50.285 30.614l-7.152 29.452c-0.231 0.941-0.437 1.696-0.61 2.241-0.128 0.402-0.313 0.709-0.55 0.914-0.249 0.214-0.693 0.259-1.021 0.259-0.87 0-1.72-0.105-1.72-1.364 0-0.149 0.047-0.715 0.487-2.739l7.126-29.447c0.438-1.836 0.772-2.632 0.975-2.976 0.169-0.288 0.583-0.433 1.23-0.433 0.621 0 1.079 0.129 1.36 0.384 0.166 0.151 0.388 0.421 0.388 1.032C50.797 28.247 50.708 28.962 50.285 30.614z" fill="#000000" data-fill-palette-color="accent"></path><path d="M79.171 40.653L56.72 30.967c-0.316-0.137-0.635-0.205-0.944-0.205-1.109 0-1.914 0.876-1.914 2.085v3.642c0 1.332 0.973 2.75 2.215 3.231l14.193 5.492-14.201 5.576c-1.237 0.485-2.207 1.907-2.207 3.236v3.692c0 1.207 0.803 2.082 1.908 2.082 0.312 0 0.633-0.07 0.95-0.208l22.456-9.777c1.207-0.526 2.152-1.969 2.152-3.285v-2.594C81.328 42.616 80.381 41.175 79.171 40.653zM79.56 46.528c0 0.623-0.52 1.415-1.089 1.663L56.014 57.97c-0.091 0.039-0.178 0.061-0.244 0.061-0.093 0-0.14-0.104-0.14-0.313v-3.692c0-0.609 0.517-1.368 1.084-1.591l14.667-5.759c1.081-0.424 1.24-1.103 1.239-1.469 0-0.367-0.164-1.044-1.246-1.463l-14.661-5.672c-0.566-0.219-1.083-0.975-1.083-1.582v-3.642c0-0.317 0.105-0.317 0.146-0.317 0.047 0 0.127 0.011 0.244 0.061l22.451 9.686c0.57 0.246 1.089 1.037 1.089 1.658V46.528z" fill="#000000" data-fill-palette-color="accent"></path></g></svg></g></svg></g></svg></g><defs></defs></svg><rect width="395.52" height="104.74956629974157" fill="none" stroke="none" visibility="hidden"></rect></g></svg></g></svg>